<svg xmlns="http://www.w3.org/2000/svg" width="1280" height="760" viewBox="0 0 1280 760" role="img" aria-label="InterviewOS demo analysis screen">
  <defs>
    <linearGradient id="bg" x1="0" x2="1" y1="0" y2="1">
      <stop stop-color="#080a0d"/>
      <stop offset="0.55" stop-color="#111716"/>
      <stop offset="1" stop-color="#090f10"/>
    </linearGradient>
    <filter id="shadow" x="-20%" y="-20%" width="140%" height="140%">
      <feDropShadow dx="0" dy="24" stdDeviation="28" flood-color="#000000" flood-opacity="0.42"/>
    </filter>
  </defs>
  <rect width="1280" height="760" fill="url(#bg)"/>
  <g opacity="0.16" stroke="#ffffff" stroke-width="1">
    <path d="M0 95h1280M0 190h1280M0 285h1280M0 380h1280M0 475h1280M0 570h1280M0 665h1280"/>
    <path d="M120 0v760M240 0v760M360 0v760M480 0v760M600 0v760M720 0v760M840 0v760M960 0v760M1080 0v760M1200 0v760"/>
  </g>
  <text x="42" y="50" fill="#f6f1e8" font-family="Inter, Arial, sans-serif" font-size="28" font-weight="900">Maya Chen · Realtime parser</text>
  <rect x="1110" y="20" width="130" height="42" rx="21" fill="#1d2815" stroke="#b9f251" stroke-opacity="0.65"/>
  <text x="1175" y="48" text-anchor="middle" fill="#b9f251" font-family="Inter, Arial, sans-serif" font-size="16" font-weight="900">Maya Chen</text>
  <g transform="translate(42 78)" filter="url(#shadow)">
    <rect width="1196" height="158" rx="24" fill="#171d20" stroke="#ffffff" stroke-opacity="0.14"/>
    <text x="28" y="44" fill="#b9f251" font-family="Menlo, monospace" font-size="15" font-weight="900">AGENTIC BACKEND</text>
    <text x="28" y="76" fill="#f6f1e8" font-family="Inter, Arial, sans-serif" font-size="27" font-weight="900">Specialists ran in parallel</text>
    <rect x="1040" y="36" width="120" height="40" rx="20" fill="#241f12" stroke="#ffd166" stroke-opacity="0.55"/>
    <text x="1100" y="62" text-anchor="middle" fill="#ffd166" font-family="Inter, Arial, sans-serif" font-size="14" font-weight="900">7 agents • 4ms</text>
    <g transform="translate(28 100)">
      <g fill="#0f1415" stroke="#ffffff" stroke-opacity="0.12">
        <rect width="146" height="40" rx="12"/><rect x="158" width="146" height="40" rx="12"/><rect x="316" width="146" height="40" rx="12"/><rect x="474" width="146" height="40" rx="12"/><rect x="632" width="146" height="40" rx="12"/><rect x="790" width="146" height="40" rx="12"/><rect x="948" width="146" height="40" rx="12"/>
      </g>
      <g fill="#f6f1e8" font-family="Inter, Arial, sans-serif" font-size="13" font-weight="850">
        <text x="20" y="25">Conversation</text><text x="178" y="25">Workflow</text><text x="336" y="25">Code Review</text><text x="494" y="25">Technical Depth</text><text x="652" y="25">Verification</text><text x="810" y="25">Communication</text><text x="968" y="25">Delivery Risk</text>
      </g>
    </g>
  </g>
  <g transform="translate(42 260)" filter="url(#shadow)">
    <rect width="1196" height="390" rx="24" fill="#171d20" stroke="#ffffff" stroke-opacity="0.14"/>
    <text x="28" y="44" fill="#b9f251" font-family="Menlo, monospace" font-size="15" font-weight="900">CRITICAL INSIGHTS</text>
    <text x="28" y="82" fill="#f6f1e8" font-family="Inter, Arial, sans-serif" font-size="28" font-weight="900">What the transcript reveals</text>
    <rect x="950" y="36" width="205" height="40" rx="20" fill="#241f12" stroke="#ffd166" stroke-opacity="0.55"/>
    <text x="1052" y="62" text-anchor="middle" fill="#ffd166" font-family="Inter, Arial, sans-serif" font-size="15" font-weight="900">79% evidence confidence</text>
    <g transform="translate(28 112)">
      <rect width="350" height="240" rx="18" fill="#151819" stroke="#ff7769" stroke-width="4"/>
      <rect x="390" width="350" height="240" rx="18" fill="#151819" stroke="#ff7769" stroke-width="4"/>
      <rect x="780" width="350" height="240" rx="18" fill="#151819" stroke="#ffd166" stroke-width="4"/>
      <g font-family="Inter, Arial, sans-serif">
        <text x="24" y="45" fill="#ff7769" font-size="13" font-weight="900">CODE RISK</text>
        <text x="24" y="96" fill="#f6f1e8" font-size="24" font-weight="900">Fallback parsing behavior</text>
        <text x="24" y="125" fill="#f6f1e8" font-size="24" font-weight="900">is under-specified.</text>
        <text x="24" y="164" fill="#d5ddd3" font-size="18" font-weight="750">Parser fallback exists, but malformed</text>
        <text x="24" y="190" fill="#d5ddd3" font-size="18" font-weight="750">payload handling is not proven.</text>
        <text x="414" y="45" fill="#ff7769" font-size="13" font-weight="900">LATE PROOF</text>
        <text x="414" y="96" fill="#f6f1e8" font-size="24" font-weight="900">Validated only after the</text>
        <text x="414" y="125" fill="#f6f1e8" font-size="24" font-weight="900">implementation was done.</text>
        <text x="414" y="164" fill="#d5ddd3" font-size="18" font-weight="750">Tests were deferred until after</text>
        <text x="414" y="190" fill="#d5ddd3" font-size="18" font-weight="750">the core parser path was wired.</text>
        <text x="804" y="45" fill="#ffd166" font-size="13" font-weight="900">AGENT WORKFLOW GAP</text>
        <text x="804" y="96" fill="#f6f1e8" font-size="24" font-weight="900">Used AI as a generator,</text>
        <text x="804" y="125" fill="#f6f1e8" font-size="24" font-weight="900">not a managed workflow.</text>
        <text x="804" y="164" fill="#d5ddd3" font-size="18" font-weight="750">No planner, reviewer, tester, or</text>
        <text x="804" y="190" fill="#d5ddd3" font-size="18" font-weight="750">acceptance criteria loop.</text>
      </g>
    </g>
  </g>
  <g transform="translate(42 670)" font-family="Inter, Arial, sans-serif">
    <rect width="275" height="58" rx="16" fill="#151a1d" stroke="#ffffff" stroke-opacity="0.13"/>
    <text x="18" y="24" fill="#aab5af" font-size="14" font-weight="900">Agent workflow maturity</text>
    <text x="18" y="48" fill="#f6f1e8" font-size="25" font-weight="900">Needs structure</text>
    <rect x="300" width="275" height="58" rx="16" fill="#151a1d" stroke="#ffffff" stroke-opacity="0.13"/>
    <text x="318" y="24" fill="#aab5af" font-size="14" font-weight="900">Evidence timing</text>
    <text x="318" y="48" fill="#f6f1e8" font-size="25" font-weight="900">Late</text>
    <rect x="600" width="275" height="58" rx="16" fill="#151a1d" stroke="#ffffff" stroke-opacity="0.13"/>
    <text x="618" y="24" fill="#aab5af" font-size="14" font-weight="900">Communication</text>
    <text x="618" y="48" fill="#f6f1e8" font-size="25" font-weight="900">Strong</text>
    <rect x="900" width="275" height="58" rx="16" fill="#151a1d" stroke="#ffffff" stroke-opacity="0.13"/>
    <text x="918" y="24" fill="#aab5af" font-size="14" font-weight="900">Delivery risk</text>
    <text x="918" y="48" fill="#f6f1e8" font-size="25" font-weight="900">Medium</text>
  </g>
</svg>
